<svg version="1.1" xmlns="http://www.w3.org/2000/svg" xmlns:xlink="http://www.w3.org/1999/xlink" width="48" height="48"><defs><linearGradient x1="14.48207" y1="10.46951" x2="62.89581" y2="66.90838" gradientUnits="userSpaceOnUse" id="color-1"><stop offset="0" stop-color="#000000" stop-opacity="0.52"></stop><stop offset="1" stop-color="#000000" stop-opacity="0"></stop></linearGradient><filter id="dropshadow-base"><feColorMatrix type="matrix" values="0 0 0 0 0  0 0 0 0 0  0 0 0 0 0  0 0 0 .8 0"></feColorMatrix> <feOffset dx="0" dy="1"></feOffset> <feGaussianBlur stdDeviation="1"></feGaussianBlur> <feComposite in="SourceGraphic"></feComposite></filter><filter id="dropshadow-banner" x="-10%" y="-10%" width="120%" height="130%"><feColorMatrix type="matrix" values="0 0 0 0 0  0 0 0 0 0  0 0 0 0 0  0 0 0 .4 0"></feColorMatrix> <feOffset dx="0" dy="1"></feOffset> <feGaussianBlur stdDeviation="0.5"></feGaussianBlur> <feComposite in="SourceGraphic"></feComposite></filter></defs><g fill="none" fill-rule="nonzero" stroke="none" stroke-width="none" stroke-linecap="butt" stroke-linejoin="miter" stroke-miterlimit="10" stroke-dasharray="" stroke-dashoffset="0" font-family="none" font-weight="none" font-size="none" text-anchor="none" style="mix-blend-mode: normal"><path d="M2,24c0,-12.15026 9.84974,-22 22,-22c12.15026,0 22,9.84974 22,22c0,12.15026 -9.84974,22 -22,22c-12.15026,0 -22,-9.84974 -22,-22z" id="base 1 5" fill="#376dbc" stroke-width="1"></path><path d="M20.14401,35.82284c-0.37194,-0.37195 -0.59218,-0.86758 -0.59218,-1.41844c0,-1.18436 -0.0412,-2.42381 0.01188,-3.60814c0.02376,-0.60132 0.0673,-1.56605 -1.24288,-3.04974l-1.05992,-1.05992c-1.78138,-1.78138 -2.77885,-4.18574 -2.77885,-6.71474c0,-5.24692 4.25539,-9.51608 9.51608,-9.50232l0.00371,-0.00001c2.63034,0 5.00935,1.06384 6.73079,2.78528l14.8795,14.8795c-1.58572,8.33967 -7.879,15.01151 -16.01049,17.14616z" fill="url(#color-1)" stroke-width="1"></path><path d="M24.00186,10.46954c5.26068,0 9.51608,4.2554 9.51608,9.51612c0,2.6992 -1.12925,5.23312 -3.12611,7.05099c-2.01066,1.83158 -1.9831,2.67164 -1.95558,3.58057c0,1.26697 0.01188,2.52017 0.01188,3.78717c0,0.55086 -0.22047,1.04661 -0.59218,1.41844c-0.35808,0.35807 -0.86758,0.59218 -1.41844,0.59218c-0.20659,0 -0.26171,0.26171 -0.30296,0.42691c-0.09635,0.37195 -0.37195,0.68858 -0.78497,0.68858h-2.6992c-0.42691,0 -0.67478,-0.30295 -0.78494,-0.68858c-0.05508,-0.16536 -0.09635,-0.42691 -0.30295,-0.42691c-0.55087,0 -1.04665,-0.22047 -1.41848,-0.59218c-0.37194,-0.37195 -0.59218,-0.86758 -0.59218,-1.41844c0,-1.18437 -0.04121,-2.42381 0.01188,-3.60813c0.02775,-0.70234 0.08248,-1.90047 -2.02438,-3.84225c-1.95554,-1.80407 -3.05727,-4.32427 -3.05727,-6.98215c0,-5.24692 4.25539,-9.51607 9.51608,-9.50232zM21.88104,13.37534c0.57842,-0.22048 0.26171,-1.08797 -0.31683,-0.88138c-2.57525,0.95021 -4.36555,2.6992 -5.31576,5.27448c-0.20659,0.56462 0.67478,0.89513 0.88137,0.31683c0.85382,-2.31361 2.43753,-3.856 4.75114,-4.70982zM21.42657,30.34179c-0.44066,-0.19272 -0.7161,0.48203 -0.27559,0.67482c1.99686,0.82626 3.95244,0.78494 5.86666,-0.19271c0.42691,-0.22047 0.09636,-0.86757 -0.33031,-0.64726c-1.73523,0.88141 -3.47041,0.92269 -5.26072,0.16535zM21.42657,33.55053c-0.44066,-0.19271 -0.7161,0.48203 -0.27559,0.67482c1.99686,0.82629 3.95244,0.78497 5.86666,-0.19271c0.42691,-0.22047 0.09636,-0.86757 -0.33031,-0.64722c-1.73523,0.86758 -3.47041,0.90889 -5.26072,0.16536zM26.68729,31.78779c-1.73522,0.88137 -3.47041,0.92269 -5.26072,0.16535c-0.44066,-0.19271 -0.7161,0.48199 -0.27559,0.67478c1.99686,0.8263 3.95244,0.78498 5.86666,-0.19271c0.42691,-0.22047 0.09636,-0.86761 -0.33031,-0.64726z" id="path26 1 1" fill="none" stroke-width="0"></path><path d="M24.00186,10.46954c5.26068,0 9.51608,4.2554 9.51608,9.51612c0,2.6992 -1.12925,5.23312 -3.12611,7.05099c-2.01066,1.83158 -1.9831,2.67164 -1.95558,3.58057c0,1.26697 0.01188,2.52017 0.01188,3.78717c0,0.55086 -0.22047,1.04661 -0.59218,1.41844c-0.35808,0.35807 -0.86758,0.59218 -1.41844,0.59218c-0.20659,0 -0.26171,0.26171 -0.30296,0.42691c-0.09635,0.37195 -0.37195,0.68858 -0.78497,0.68858h-2.6992c-0.42691,0 -0.67478,-0.30295 -0.78494,-0.68858c-0.05508,-0.16536 -0.09635,-0.42691 -0.30295,-0.42691c-0.55087,0 -1.04665,-0.22047 -1.41848,-0.59218c-0.37194,-0.37195 -0.59218,-0.86758 -0.59218,-1.41844c0,-1.18437 -0.04121,-2.42381 0.01188,-3.60813c0.02775,-0.70234 0.08248,-1.90047 -2.02438,-3.84225c-1.95554,-1.80407 -3.05727,-4.32427 -3.05727,-6.98215c0,-5.24692 4.25539,-9.51607 9.51608,-9.50232zM21.88104,13.37534c0.57842,-0.22048 0.26171,-1.08797 -0.31683,-0.88138c-2.57525,0.95021 -4.36555,2.6992 -5.31576,5.27448c-0.20659,0.56462 0.67478,0.89513 0.88137,0.31683c0.85382,-2.31361 2.43753,-3.856 4.75114,-4.70982zM21.42657,30.34179c-0.44066,-0.19272 -0.7161,0.48203 -0.27559,0.67482c1.99686,0.82626 3.95244,0.78494 5.86666,-0.19271c0.42691,-0.22047 0.09636,-0.86757 -0.33031,-0.64726c-1.73523,0.88141 -3.47041,0.92269 -5.26072,0.16535zM21.42657,33.55053c-0.44066,-0.19271 -0.7161,0.48203 -0.27559,0.67482c1.99686,0.82629 3.95244,0.78497 5.86666,-0.19271c0.42691,-0.22047 0.09636,-0.86757 -0.33031,-0.64722c-1.73523,0.86758 -3.47041,0.90889 -5.26072,0.16536zM26.68729,31.78779c-1.73522,0.88137 -3.47041,0.92269 -5.26072,0.16535c-0.44066,-0.19271 -0.7161,0.48199 -0.27559,0.67478c1.99686,0.8263 3.95244,0.78498 5.86666,-0.19271c0.42691,-0.22047 0.09636,-0.86761 -0.33031,-0.64726z" id="path26 1 1" fill="#ffffff" stroke-width="0"></path><path d="M2,24c0,-12.15026 9.84974,-22 22,-22c12.15026,0 22,9.84974 22,22c0,12.15026 -9.84974,22 -22,22c-12.15026,0 -22,-9.84974 -22,-22z" id="base 1 1 1" fill="none" stroke-width="1"></path><g id="svg3755 1 1" fill="#000000" stroke-width="1" font-family="Roboto, sans-serif" font-weight="400" font-size="14" text-anchor="start"><g id="layer1 1 1"></g></g><rect x="2" y="2" width="44" height="22" fill="none" stroke-width="1"></rect><path d="M2,24v-22h44v22z" fill="none" stroke-width="1"></path><path d="M2,24v-22h44v22z" fill="none" stroke-width="1"></path><path d="M2,24v-22h44v22z" fill="none" stroke-width="1"></path><path d="M2,24v-22h44v22z" fill="none" stroke-width="1"></path></g></svg>